<?xml version="1.0" encoding="UTF-8"?>
<svg width="11px" height="11px" viewBox="0 0 11 11" version="1.1" xmlns="http://www.w3.org/2000/svg" xmlns:xlink="http://www.w3.org/1999/xlink">
    <!-- Generator: Sketch 47.1 (45422) - http://www.bohemiancoding.com/sketch -->
    <title>icon-phone</title>
    <desc>Created with Sketch.</desc>
    <defs></defs>
    <g id="Page-1" stroke="none" stroke-width="1" fill="none" fill-rule="evenodd">
        <path d="M11,8.6875 C11,8.8281257 10.9739586,9.01171762 10.921875,9.23828125 C10.8697914,9.46484488 10.8151045,9.64322852 10.7578125,9.7734375 C10.648437,10.0338555 10.3307318,10.3098944 9.8046875,10.6015625 C9.31510172,10.8671888 8.83073156,11 8.3515625,11 C8.2109368,11 8.07291734,10.9908855 7.9375,10.9726562 C7.80208266,10.954427 7.65234457,10.9218752 7.48828125,10.875 C7.32421793,10.8281248 7.20182332,10.7903647 7.12109375,10.7617188 C7.04036418,10.7330728 6.89583438,10.6796879 6.6875,10.6015625 C6.47916562,10.5234371 6.35156273,10.4765626 6.3046875,10.4609375 C5.79426828,10.2786449 5.33854367,10.0625012 4.9375,9.8125 C4.27603836,9.40103961 3.58854523,8.83854523 2.875,8.125 C2.16145477,7.41145477 1.59896039,6.72396164 1.1875,6.0625 C0.93749875,5.66145633 0.721355078,5.20573172 0.5390625,4.6953125 C0.523437422,4.64843727 0.476562891,4.52083438 0.3984375,4.3125 C0.320312109,4.10416562 0.266927227,3.95963582 0.23828125,3.87890625 C0.209635273,3.79817668 0.171875234,3.67578207 0.125,3.51171875 C0.0781247656,3.34765543 0.0455730078,3.19791734 0.02734375,3.0625 C0.00911449219,2.92708266 0,2.7890632 0,2.6484375 C0,2.16926844 0.132811172,1.68489828 0.3984375,1.1953125 C0.690105625,0.669268203 0.966144531,0.351563047 1.2265625,0.2421875 C1.35677148,0.184895547 1.53515512,0.130208594 1.76171875,0.078125 C1.98828238,0.0260414062 2.1718743,0 2.3125,0 C2.38541703,0 2.44010398,0.00781242187 2.4765625,0.0234375 C2.57031297,0.0546876563 2.70833242,0.252602344 2.890625,0.6171875 C2.94791695,0.716146328 3.02604117,0.856769922 3.125,1.0390625 C3.22395883,1.22135508 3.31510375,1.38671801 3.3984375,1.53515625 C3.48177125,1.68359449 3.56249961,1.82291602 3.640625,1.953125 C3.65625008,1.97395844 3.70182254,2.03906195 3.77734375,2.1484375 C3.85286496,2.25781305 3.90885398,2.35026004 3.9453125,2.42578125 C3.98177102,2.50130246 4,2.57552047 4,2.6484375 C4,2.75260469 3.92578199,2.88281172 3.77734375,3.0390625 C3.62890551,3.19531328 3.46744879,3.33854102 3.29296875,3.46875 C3.11848871,3.59895898 2.95703199,3.73697844 2.80859375,3.8828125 C2.66015551,4.02864656 2.5859375,4.14843703 2.5859375,4.2421875 C2.5859375,4.28906273 2.5989582,4.3476559 2.625,4.41796875 C2.6510418,4.4882816 2.67317699,4.54166648 2.69140625,4.578125 C2.70963551,4.61458352 2.74609348,4.67708289 2.80078125,4.765625 C2.85546902,4.85416711 2.88541664,4.90364578 2.890625,4.9140625 C3.28646031,5.62760773 3.73958078,6.23958078 4.25,6.75 C4.76041922,7.26041922 5.37239227,7.71353969 6.0859375,8.109375 C6.09635422,8.11458336 6.14583289,8.14453098 6.234375,8.19921875 C6.32291711,8.25390652 6.38541648,8.29036449 6.421875,8.30859375 C6.45833352,8.32682301 6.5117184,8.3489582 6.58203125,8.375 C6.6523441,8.4010418 6.71093727,8.4140625 6.7578125,8.4140625 C6.85156297,8.4140625 6.97135344,8.33984449 7.1171875,8.19140625 C7.26302156,8.04296801 7.40104102,7.88151129 7.53125,7.70703125 C7.66145898,7.53255121 7.80468672,7.37109449 7.9609375,7.22265625 C8.11718828,7.07421801 8.24739531,7 8.3515625,7 C8.42447953,7 8.49869754,7.01822898 8.57421875,7.0546875 C8.64973996,7.09114602 8.74218695,7.14713504 8.8515625,7.22265625 C8.96093805,7.29817746 9.02604156,7.34374992 9.046875,7.359375 C9.17708398,7.43750039 9.31640551,7.51822875 9.46484375,7.6015625 C9.61328199,7.68489625 9.77864492,7.77604117 9.9609375,7.875 C10.1432301,7.97395883 10.2838537,8.05208305 10.3828125,8.109375 C10.7473977,8.29166758 10.9453123,8.42968703 10.9765625,8.5234375 C10.9921876,8.55989602 11,8.61458297 11,8.6875 Z" id="icon-phone" fill="#000000"></path>
    </g>
</svg>