<?xml version="1.0" encoding="UTF-8"?>
<svg width="14px" height="11px" viewBox="0 0 14 11" version="1.1" xmlns="http://www.w3.org/2000/svg" xmlns:xlink="http://www.w3.org/1999/xlink">
    <!-- Generator: Sketch 47.1 (45422) - http://www.bohemiancoding.com/sketch -->
    <title>icon-mail</title>
    <desc>Created with Sketch.</desc>
    <defs></defs>
    <g id="Page-1" stroke="none" stroke-width="1" fill="none" fill-rule="evenodd">
        <path d="M14,1.25 L14,9.75 C14,10.0937517 13.8776054,10.3880196 13.6328125,10.6328125 C13.3880196,10.8776054 13.0937517,11 12.75,11 L1.25,11 C0.906248281,11 0.611980391,10.8776054 0.3671875,10.6328125 C0.122394609,10.3880196 0,10.0937517 0,9.75 L0,1.25 C0,0.906248281 0.122394609,0.611980391 0.3671875,0.3671875 C0.611980391,0.122394609 0.906248281,0 1.25,0 L12.75,0 C13.0937517,0 13.3880196,0.122394609 13.6328125,0.3671875 C13.8776054,0.611980391 14,0.906248281 14,1.25 Z M13,9.75 L13,3.75 C12.8333325,3.93750094 12.6536468,4.10937422 12.4609375,4.265625 C11.0650972,5.33854703 9.95573328,6.21874656 9.1328125,6.90625 C8.86718617,7.13020945 8.6510425,7.30468688 8.484375,7.4296875 C8.3177075,7.55468812 8.09244934,7.68098895 7.80859375,7.80859375 C7.52473816,7.93619855 7.25781375,8 7.0078125,8 L6.9921875,8 C6.74218625,8 6.47526184,7.93619855 6.19140625,7.80859375 C5.90755066,7.68098895 5.6822925,7.55468812 5.515625,7.4296875 C5.3489575,7.30468688 5.13281383,7.13020945 4.8671875,6.90625 C4.04426672,6.21874656 2.93490281,5.33854703 1.5390625,4.265625 C1.3463532,4.10937422 1.1666675,3.93750094 1,3.75 L1,9.75 C1,9.81770867 1.02473934,9.87630184 1.07421875,9.92578125 C1.12369816,9.97526066 1.18229133,10 1.25,10 L12.75,10 C12.8177087,10 12.8763018,9.97526066 12.9257812,9.92578125 C12.9752607,9.87630184 13,9.81770867 13,9.75 Z M13,1.5390625 L13,1.34765625 C13,1.32421863 12.9986979,1.2903648 12.9960938,1.24609375 C12.9934896,1.2018227 12.9856771,1.16927094 12.9726562,1.1484375 C12.9596354,1.12760406 12.9453126,1.1041668 12.9296875,1.078125 C12.9140624,1.0520832 12.8906252,1.03255215 12.859375,1.01953125 C12.8281248,1.00651035 12.7916669,1 12.75,1 L1.25,1 C1.18229133,1 1.12369816,1.02473934 1.07421875,1.07421875 C1.02473934,1.12369816 1,1.18229133 1,1.25 C1,2.12500438 1.38280867,2.86458031 2.1484375,3.46875 C3.15365086,4.26042063 4.19791125,5.0859332 5.28125,5.9453125 C5.31250016,5.9713543 5.40364508,6.04817645 5.5546875,6.17578125 C5.70572992,6.30338605 5.82552039,6.40104133 5.9140625,6.46875 C6.00260461,6.53645867 6.11848887,6.6184891 6.26171875,6.71484375 C6.40494863,6.8111984 6.53645773,6.88281227 6.65625,6.9296875 C6.77604227,6.97656273 6.88802031,7 6.9921875,7 L7.0078125,7 C7.11197969,7 7.22395773,6.97656273 7.34375,6.9296875 C7.46354227,6.88281227 7.59505137,6.8111984 7.73828125,6.71484375 C7.88151113,6.6184891 7.99739539,6.53645867 8.0859375,6.46875 C8.17447961,6.40104133 8.29427008,6.30338605 8.4453125,6.17578125 C8.59635492,6.04817645 8.68749984,5.9713543 8.71875,5.9453125 C9.80208875,5.0859332 10.8463491,4.26042063 11.8515625,3.46875 C12.1328139,3.24479055 12.39453,2.9440123 12.6367188,2.56640625 C12.8789075,2.1888002 13,1.8463557 13,1.5390625 Z" id="icon-mail" fill="#000000"></path>
    </g>
</svg>