<?xml version="1.0" encoding="UTF-8"?>
<svg width="398px" height="61px" viewBox="0 0 398 61" version="1.1" xmlns="http://www.w3.org/2000/svg" xmlns:xlink="http://www.w3.org/1999/xlink">
    <!-- Generator: Sketch 47.1 (45422) - http://www.bohemiancoding.com/sketch -->
    <title>SARAH HUDSON LOGO</title>
    <desc>Created with Sketch.</desc>
    <defs>
        <polygon id="path-1" points="0.0786885246 52.4577049 0.0786885246 0.514098361 357.001967 0.514098361 357.001967 52.4577049"></polygon>
    </defs>
    <g id="Page-1" stroke="none" stroke-width="1" fill="none" fill-rule="evenodd">
        <g id="Landing-Page-2" transform="translate(-825.000000, -103.000000)">
            <g id="SARAH-HUDSON-LOGO" transform="translate(825.000000, 101.000000)">
                <text id="-" font-family="LucidaGrande, Lucida Grande" font-size="12.346" font-weight="normal"></text>
                <path d="M312.794754,4.44196721 C312.045902,4.44196721 311.432131,4.66229508 310.956066,5.1042623 C310.486557,5.54491803 310.24918,6.06032787 310.24918,6.65180328 C310.24918,7.25639344 310.427541,7.7495082 310.8,8.13377049 C311.171148,8.51934426 311.627541,8.86295082 312.187541,9.17639344 C312.740984,9.48459016 313.339016,9.78491803 313.97377,10.0721311 C314.617705,10.3619672 315.20918,10.7095082 315.76918,11.1265574 C316.323934,11.544918 316.784262,12.0537705 317.156721,12.6478689 C317.523934,13.2485246 317.707541,14.0091803 317.707541,14.9429508 C317.707541,15.762623 317.55541,16.5088525 317.240656,17.1868852 C316.927213,17.8688525 316.486557,18.4472131 315.916066,18.9311475 C315.340328,19.4163934 314.658361,19.7809836 313.863607,20.0354098 C313.076721,20.2872131 312.187541,20.4170492 311.203934,20.4170492 C310.323934,20.4170492 309.531803,20.322623 308.836721,20.1363934 C308.145574,19.944918 307.614426,19.7114754 307.255082,19.4347541 C307.412459,18.8642623 307.552787,18.3396721 307.673443,17.8662295 C307.782295,17.3888525 307.881967,16.8734426 307.967213,16.3186885 L308.432787,16.3186885 C308.499672,16.6767213 308.620328,17.0177049 308.8,17.3377049 C308.977049,17.6537705 309.206557,17.9396721 309.48459,18.1862295 C309.763934,18.4288525 310.097049,18.6203279 310.491803,18.7567213 C310.887869,18.8970492 311.328525,18.9678689 311.815082,18.9678689 C312.794754,18.9678689 313.527869,18.7239344 313.989508,18.2334426 C314.455082,17.7403279 314.691148,17.1527869 314.691148,16.4629508 C314.691148,15.8439344 314.50623,15.3390164 314.146885,14.9429508 C313.783607,14.5534426 313.339016,14.2045902 312.794754,13.9016393 C312.260984,13.597377 311.674754,13.304918 311.03082,13.0163934 C310.394754,12.7331148 309.803279,12.3829508 309.265574,11.9777049 C308.721311,11.5698361 308.270164,11.064918 307.914754,10.4629508 C307.552787,9.86622951 307.380984,9.10557377 307.380984,8.17311475 C307.380984,7.32196721 307.526557,6.5704918 307.825574,5.9147541 C308.135082,5.26163934 308.536393,4.71213115 309.046557,4.26622951 C309.547541,3.82688525 310.13377,3.49114754 310.8,3.2642623 C311.459672,3.0347541 312.16,2.91803279 312.899672,2.91803279 C313.778361,2.91803279 314.553443,3.0295082 315.218361,3.24065574 C315.879344,3.45311475 316.44459,3.74688525 316.921967,4.12196721 C316.775082,4.50229508 316.64918,4.8642623 316.542951,5.21442623 C316.439344,5.56590164 316.297705,6.0104918 316.135082,6.5495082 L315.76918,6.5495082 C315.245902,5.14622951 314.260984,4.44196721 312.794754,4.44196721" id="Fill-1" fill="#1A2541"></path>
                <path d="M325.033443,17.0544262 C325.047869,18.3304918 325.106885,19.3455738 325.2,20.0957377 C324.928525,20.0629508 324.619016,20.0511475 324.29377,20.0511475 L322.083934,20.0511475 C321.754754,20.0511475 321.455738,20.0629508 321.177705,20.0957377 C321.247213,19.0806557 321.293115,18.0485246 321.329836,16.9914754 C321.357377,15.9357377 321.373115,14.7318033 321.373115,13.3731148 L321.373115,10.0380328 C321.373115,8.67803279 321.357377,7.47147541 321.329836,6.41836066 C321.293115,5.36131148 321.247213,4.3042623 321.177705,3.23803279 C321.455738,3.27213115 321.754754,3.30098361 322.083934,3.32327869 C322.419672,3.35344262 322.775082,3.36393443 323.194754,3.36393443 C323.598689,3.36393443 323.969836,3.35344262 324.29377,3.32327869 C324.619016,3.30098361 324.928525,3.27213115 325.2,3.23803279 C325.121311,3.73377049 325.070164,4.46819672 325.042623,5.44655738 C325.017705,6.42885246 325.005902,7.51868852 325.005902,8.71344262 L325.005902,11.064918 C325.560656,10.4144262 326.158689,9.70098361 326.797377,8.91934426 C327.437377,8.14295082 328.047213,7.38491803 328.637377,6.65180328 C329.228852,5.91606557 329.756066,5.24065574 330.233443,4.62557377 C330.709508,4.01180328 331.054426,3.55016393 331.264262,3.23803279 C331.49377,3.27213115 331.720656,3.30098361 331.95541,3.32327869 C332.182295,3.35344262 332.411803,3.36393443 332.641311,3.36393443 C332.866885,3.36393443 333.096393,3.35344262 333.339016,3.32327869 C333.579016,3.30098361 333.83082,3.27213115 334.112787,3.23803279 C333.83082,3.51737705 333.405902,3.96721311 332.83541,4.58885246 C332.264918,5.2104918 331.656393,5.88065574 331.008525,6.60196721 C330.359344,7.32459016 329.745574,8.02098361 329.148852,8.69901639 C328.567869,9.37704918 328.10623,9.91213115 327.775738,10.3042623 C328.306885,11.1068852 328.881311,11.9881967 329.525246,12.9560656 C330.16,13.92 330.793443,14.8668852 331.428197,15.7901639 C332.049836,16.7134426 332.641311,17.5645902 333.176393,18.3396721 C333.71541,19.12 334.156066,19.7036066 334.48,20.0957377 C334.007869,20.0629508 333.579016,20.0511475 333.202623,20.0511475 L331.033443,20.0511475 C330.678033,20.0511475 330.322623,20.0629508 329.965902,20.0957377 C329.127869,18.8563934 328.312131,17.5921311 327.509508,16.3055738 C326.709508,15.0229508 325.891148,13.7403279 325.059672,12.4642623 L325.005902,12.4642623 C325.005902,14.2504918 325.017705,15.7783607 325.033443,17.0544262" id="Fill-2" fill="#1A2541"></path>
                <path d="M337.433443,6.41836066 C337.400656,5.36 337.349508,4.30295082 337.286557,3.23672131 C337.563279,3.27081967 337.874098,3.30098361 338.198033,3.32721311 C338.528525,3.35213115 338.894426,3.36262295 339.302295,3.36262295 C339.712787,3.36262295 340.077377,3.35213115 340.402623,3.32721311 C340.733115,3.30098361 341.032131,3.27081967 341.308852,3.23672131 C341.245902,4.30295082 341.194754,5.36 341.167213,6.41836066 C341.130492,7.47147541 341.12,8.67803279 341.12,10.0367213 L341.12,13.3731148 C341.12,14.7318033 341.130492,15.9370492 341.167213,16.9914754 C341.194754,18.0498361 341.245902,19.0832787 341.308852,20.0970492 C341.032131,20.0629508 340.733115,20.0498361 340.402623,20.0498361 L338.198033,20.0498361 C337.874098,20.0498361 337.563279,20.0629508 337.286557,20.0970492 C337.349508,19.0832787 337.400656,18.0498361 337.433443,16.9914754 C337.464918,15.9370492 337.487213,14.7318033 337.487213,13.3731148 L337.487213,10.0367213 C337.487213,8.67803279 337.464918,7.47147541 337.433443,6.41836066" id="Fill-3" fill="#1A2541"></path>
                <path d="M345.403279,5.27737705 C345.371803,4.50754098 345.345574,3.82688525 345.331148,3.23672131 C345.791475,3.32327869 346.163934,3.36262295 346.43541,3.36262295 C346.718689,3.36262295 347.085902,3.32327869 347.544918,3.23672131 C349.325902,5.21967213 351.08459,7.16590164 352.828852,9.07540984 C354.573115,10.9940984 356.358033,12.9403279 358.191475,14.9206557 L358.191475,10.4039344 C358.191475,9.6 358.191475,8.81442623 358.175738,8.03409836 C358.170492,7.25901639 358.165246,6.54163934 358.153443,5.88983607 C358.144262,5.23540984 358.128525,4.67016393 358.107541,4.19278689 C358.082623,3.72327869 358.049836,3.40327869 358.023607,3.23672131 C358.478689,3.32327869 358.847213,3.36262295 359.130492,3.36262295 C359.405902,3.36262295 359.773115,3.32327869 360.228197,3.23672131 C360.145574,4.72786885 360.076066,6.07213115 360.034098,7.2747541 C359.982951,8.47606557 359.94623,9.6104918 359.908197,10.6740984 C359.878033,11.7363934 359.857049,12.7881967 359.846557,13.8295082 C359.836066,14.8655738 359.836066,15.9737705 359.836066,17.1514754 L359.836066,20.0970492 C359.512131,20.0629508 359.169836,20.0472131 358.831475,20.0472131 C358.469508,20.0472131 358.149508,20.0629508 357.876721,20.0970492 C354.498361,16.1704918 350.928525,12.2216393 347.147541,8.24655738 C347.137049,8.72 347.125246,9.19344262 347.11082,9.66557377 C347.105574,10.1416393 347.100328,10.6242623 347.100328,11.1160656 L347.100328,13.9645902 C347.100328,14.9416393 347.105574,15.7770492 347.11082,16.4642623 C347.125246,17.1514754 347.137049,17.732459 347.147541,18.2059016 C347.167213,18.6832787 347.184262,19.0701639 347.194754,19.3744262 C347.217049,19.6760656 347.230164,19.917377 347.245902,20.0970492 C347.054426,20.0629508 346.85377,20.0472131 346.659672,20.0472131 L346.094426,20.0472131 C345.718033,20.0472131 345.345574,20.0629508 344.96918,20.0970492 C345.000656,19.9659016 345.036066,19.5003279 345.088525,18.695082 C345.137049,17.8977049 345.188197,16.9180328 345.247213,15.7665574 C345.304918,14.612459 345.356066,13.362623 345.392787,12.0091803 C345.434754,10.6596721 345.457049,9.3652459 345.457049,8.12065574 C345.457049,6.99278689 345.44,6.04327869 345.403279,5.27737705" id="Fill-4" fill="#1A2541"></path>
                <g id="Group-8" transform="translate(0.000000, 10.491803)">
                    <mask id="mask-2" fill="white">
                        <use xlink:href="#path-1"></use>
                    </mask>
                    <g id="Clip-6"></g>
                    <path d="M326.615082,25.6760656 C327.388852,23.3586885 328.468197,21.4006557 329.860984,19.7993443 C331.248525,18.1954098 332.914098,16.9757377 334.845902,16.1377049 C336.784262,15.3036066 338.910164,14.8865574 341.20918,14.8865574 C343.539672,14.8865574 345.669508,15.3036066 347.607869,16.1377049 C349.54623,16.9757377 351.206557,18.1954098 352.592787,19.7993443 C353.992131,21.4006557 355.071475,23.3586885 355.845246,25.6760656 C356.616393,27.9960656 357.001967,30.6347541 357.001967,33.5934426 C357.001967,36.5586885 356.616393,39.197377 355.845246,41.5147541 C355.071475,43.8347541 353.992131,45.7901639 352.592787,47.3954098 C351.206557,48.9940984 349.54623,50.1888525 347.607869,50.9757377 C345.669508,51.7547541 343.539672,52.1534426 341.20918,52.1534426 C338.910164,52.1534426 336.784262,51.7547541 334.845902,50.9757377 C332.914098,50.1888525 331.248525,48.9940984 329.860984,47.3954098 C328.468197,45.7901639 327.388852,43.8347541 326.615082,41.5147541 C325.838689,39.197377 325.458361,36.5586885 325.458361,33.5934426 C325.458361,30.6347541 325.838689,27.9960656 326.615082,25.6760656 M351.99082,26.0957377 C351.399344,23.9881967 350.577049,22.2439344 349.523934,20.8668852 C348.472131,19.495082 347.236721,18.4747541 345.821639,17.8085246 C344.397377,17.1488525 342.862951,16.8196721 341.20918,16.8196721 C339.580328,16.8196721 338.051148,17.1488525 336.637377,17.8085246 C335.219672,18.4747541 333.982951,19.495082 332.935082,20.8668852 C331.876721,22.2439344 331.055738,23.9881967 330.462951,26.0957377 C329.878033,28.2019672 329.589508,30.7042623 329.589508,33.5934426 C329.589508,36.4878689 329.878033,38.9888525 330.462951,41.0963934 C331.055738,43.2052459 331.876721,44.9455738 332.935082,46.3252459 C333.982951,47.6970492 335.219672,48.7147541 336.637377,49.3836066 C338.051148,50.0419672 339.580328,50.372459 341.20918,50.372459 C342.862951,50.372459 344.397377,50.0419672 345.821639,49.3836066 C347.236721,48.7147541 348.472131,47.6970492 349.523934,46.3252459 C350.577049,44.9455738 351.399344,43.2052459 351.99082,41.0963934 C352.571803,38.9888525 352.869508,36.4878689 352.869508,33.5934426 C352.869508,30.7042623 352.571803,28.2019672 351.99082,26.0957377" id="Fill-5" fill="#1A2541" mask="url(#mask-2)"></path>
                    <path d="M3.0347541,44.6990164 C3.55803279,45.6 4.19016393,46.4104918 4.94163934,47.1436066 C5.69442623,47.8701639 6.56918033,48.4629508 7.57508197,48.9232787 C8.57836066,49.3914754 9.69311475,49.6196721 10.9259016,49.6196721 C12.1993443,49.6196721 13.3455738,49.3416393 14.3685246,48.7816393 C15.3888525,48.2229508 16.2570492,47.4688525 16.9691803,46.5219672 C17.6813115,45.5737705 18.2321311,44.4603279 18.6163934,43.172459 C19.0045902,41.8872131 19.1986885,40.5127869 19.1986885,39.0557377 C19.1986885,36.8236066 18.744918,35.0504918 17.8386885,33.7363934 C16.9298361,32.4236066 15.8032787,31.335082 14.4537705,30.4603279 C13.1016393,29.5803279 11.6485246,28.7816393 10.0891803,28.055082 C8.52852459,27.3232787 7.07147541,26.4157377 5.72327869,25.3206557 C4.37639344,24.2321311 3.24721311,22.8367213 2.34098361,21.1331148 C1.4347541,19.4321311 0.982295082,17.1514754 0.982295082,14.2859016 C0.982295082,12.2439344 1.2695082,10.3868852 1.85180328,8.7095082 C2.42754098,7.03606557 3.26819672,5.59213115 4.36459016,4.37639344 C5.46229508,3.16065574 6.7842623,2.21901639 8.32393443,1.5357377 C9.86622951,0.856393443 11.602623,0.514098361 13.5318033,0.514098361 C15.3796721,0.514098361 16.9796721,0.794754098 18.3291803,1.35213115 C19.677377,1.9147541 20.9285246,2.77245902 22.0852459,3.9357377 C21.7363934,4.76590164 21.4531148,5.64065574 21.2209836,6.56262295 C20.9888525,7.48590164 20.7554098,8.65311475 20.5259016,10.0603279 L19.8308197,10.0603279 C19.6406557,9.38098361 19.3796721,8.63868852 19.0491803,7.8347541 C18.7213115,7.03606557 18.2780328,6.29639344 17.7219672,5.61311475 C17.1606557,4.93639344 16.4957377,4.36590164 15.7259016,3.90295082 C14.9560656,3.44393443 14.0314754,3.21311475 12.9508197,3.21311475 C11.8714754,3.21311475 10.882623,3.43081967 9.97377049,3.86491803 C9.06885246,4.30295082 8.27934426,4.91934426 7.60131148,5.72327869 C6.92459016,6.52590164 6.40655738,7.48590164 6.04327869,8.60196721 C5.67344262,9.72327869 5.48983607,10.935082 5.48983607,12.2439344 C5.48983607,14.5285246 5.94622951,16.3265574 6.85245902,17.6367213 C7.75868852,18.9495082 8.88262295,20.052459 10.2347541,20.9495082 C11.5829508,21.8491803 13.0386885,22.6531148 14.5967213,23.357377 C16.1639344,24.0603279 17.6144262,24.9219672 18.962623,25.9422951 C20.3095082,26.962623 21.442623,28.2740984 22.344918,29.8754098 C23.2511475,31.4767213 23.7036066,33.6157377 23.7036066,36.2872131 C23.7036066,38.5232787 23.3888525,40.637377 22.7527869,42.6229508 C22.1167213,44.615082 21.1895082,46.3501639 19.9763934,47.8321311 C18.7606557,49.3193443 17.277377,50.455082 15.5239344,51.2590164 C13.7704918,52.0577049 11.7770492,52.4577049 9.54098361,52.4577049 C7.14754098,52.4577049 5.21180328,52.0577049 3.72852459,51.2590164 C2.24393443,50.455082 0.999344262,49.5462295 0,48.5272131 C0.347540984,47.4085246 0.586229508,46.3986885 0.722622951,45.5003279 C0.857704918,44.6059016 0.982295082,43.4518033 1.09508197,42.0432787 L1.79147541,42.0432787 C2.10229508,42.9167213 2.51409836,43.8059016 3.0347541,44.6990164" id="Fill-7" fill="#1A2541" mask="url(#mask-2)"></path>
                </g>
                <path d="M58.4459016,61.9645902 C58.0157377,61.8911475 57.6052459,61.8570492 57.2236066,61.8570492 L54.7698361,61.8570492 C54.3842623,61.8570492 53.975082,61.8911475 53.5436066,61.9645902 C53.3245902,61.1632787 53.0334426,60.1940984 52.6636066,59.0636066 C52.2937705,57.9291803 51.8859016,56.7462295 51.44,55.5081967 C50.9914754,54.2740984 50.535082,53.0163934 50.0734426,51.7442623 C49.6118033,50.4747541 49.1816393,49.2629508 48.7803279,48.1127869 C47.7927869,48.0786885 46.7881967,48.0511475 45.7718033,48.0354098 C44.7554098,48.0196721 43.7363934,48.0065574 42.7186885,48.0065574 C41.762623,48.0065574 40.824918,48.0196721 39.8977049,48.0354098 C38.9731148,48.0511475 38.0301639,48.0786885 37.0754098,48.1127869 C36.0904918,50.827541 35.1934426,53.4163934 34.3921311,55.8767213 C33.5908197,58.3318033 32.9888525,60.3619672 32.587541,61.9645902 C32.0642623,61.8911475 31.492459,61.8570492 30.8813115,61.8570492 C30.2596721,61.8570492 29.6931148,61.8911475 29.1659016,61.9645902 C31.6655738,55.8662295 34.0983607,49.8019672 36.4760656,43.7744262 C38.8485246,37.7468852 41.2393443,31.6157377 43.6445902,25.3757377 L44.5245902,25.3757377 C45.2655738,27.3967213 46.0642623,29.5842623 46.9285246,31.9370492 C47.7927869,34.2859016 48.6714754,36.6662295 49.5645902,39.0714754 C50.4577049,41.4727869 51.3547541,43.8609836 52.2465574,46.2321311 C53.144918,48.6006557 53.9842623,50.8052459 54.7698361,52.8459016 C55.5567213,54.8839344 56.2636066,56.7029508 56.8983607,58.3042623 C57.5278689,59.9068852 58.0445902,61.1265574 58.4459016,61.9645902 M37.9554098,45.707541 C38.7567213,45.707541 39.5868852,45.7245902 40.452459,45.76 C41.3180328,45.7967213 42.1468852,45.8111475 42.9534426,45.8111475 C43.812459,45.8111475 44.6806557,45.8006557 45.5396721,45.787541 C46.402623,45.7704918 47.2695082,45.7442623 48.1337705,45.707541 L42.9980328,32.4314754 L37.9554098,45.707541" id="Fill-9" fill="#1A2541"></path>
                <path d="M66.002623,32.8222951 C65.9213115,30.6098361 65.8347541,28.3527869 65.7429508,26.0563934 C66.642623,26.1232787 67.517377,26.184918 68.3829508,26.24 C69.2445902,26.2898361 70.1206557,26.317377 71.0203279,26.317377 C71.9121311,26.317377 72.7921311,26.2740984 73.6537705,26.184918 C74.5180328,26.0996721 75.3967213,26.0563934 76.2937705,26.0563934 C77.5855738,26.0563934 78.8196721,26.1954098 79.9921311,26.4747541 C81.1645902,26.7554098 82.1914754,27.2170492 83.0688525,27.8583607 C83.9488525,28.5009836 84.6439344,29.3481967 85.1488525,30.3947541 C85.6590164,31.437377 85.9108197,32.744918 85.9108197,34.3147541 C85.9108197,35.9855738 85.5829508,37.4255738 84.9206557,38.6268852 C84.2544262,39.8268852 83.4452459,40.8209836 82.4904918,41.6039344 C81.5331148,42.3908197 80.507541,42.9993443 79.4163934,43.4321311 C78.322623,43.867541 77.3245902,44.1560656 76.4288525,44.2911475 C76.8,44.8170492 77.3088525,45.5554098 77.9593443,46.4918033 C78.6072131,47.4334426 79.3272131,48.4695082 80.1337705,49.602623 C80.9337705,50.7344262 81.7652459,51.92 82.6295082,53.1567213 C83.4937705,54.3947541 84.3252459,55.5777049 85.1265574,56.7095082 C85.9278689,57.8452459 86.6819672,58.88 87.3914754,59.8203279 C88.1036066,60.7606557 88.6727869,61.4740984 89.1042623,61.9659016 C88.642623,61.8898361 88.1783607,61.8570492 87.7167213,61.8570492 L84.987541,61.8570492 C84.5285246,61.8570492 84.08,61.8898361 83.6485246,61.9659016 C83.1842623,61.2314754 82.482623,60.1337705 81.5422951,58.667541 C80.6032787,57.2091803 79.5606557,55.6393443 78.4196721,53.9672131 C77.28,52.295082 76.1127869,50.6295082 74.9259016,48.9757377 C73.7416393,47.3206557 72.6544262,45.9186885 71.6668852,44.7685246 L69.9081967,44.7685246 L69.9081967,48.584918 C69.9081967,50.882623 69.9501639,53.147541 70.0222951,55.3770492 C70.1009836,57.6065574 70.187541,59.8032787 70.2780328,61.9659016 C69.5659016,61.8898361 68.8157377,61.8570492 68.0131148,61.8570492 C67.2131148,61.8570492 66.4537705,61.8898361 65.7429508,61.9659016 C65.8347541,59.8032787 65.9213115,57.6065574 66.002623,55.3770492 C66.0747541,53.147541 66.1180328,50.882623 66.1180328,48.584918 L66.1180328,39.5895082 C66.1180328,37.2918033 66.0747541,35.037377 66.002623,32.8222951 M71.3180328,42.7816393 C71.8295082,42.8144262 72.3881967,42.8354098 73.0085246,42.8354098 C73.9645902,42.8354098 74.9613115,42.7108197 75.9934426,42.4668852 C77.0268852,42.2255738 77.975082,41.7993443 78.8380328,41.1881967 C79.7022951,40.5770492 80.4157377,39.757377 80.9888525,38.7304918 C81.5593443,37.7036066 81.842623,36.4039344 81.842623,34.8380328 C81.842623,33.4754098 81.6209836,32.3540984 81.1737705,31.4636066 C80.722623,30.5757377 80.1468852,29.8714754 79.437377,29.3481967 C78.7265574,28.824918 77.9593443,28.4655738 77.122623,28.2767213 C76.2937705,28.0865574 75.4740984,27.9881967 74.6754098,27.9881967 C73.5947541,27.9881967 72.7016393,28.0157377 71.9881967,28.0642623 C71.2852459,28.1193443 70.6793443,28.1796721 70.187541,28.2491803 C70.1206557,30.1678689 70.0642623,32.0655738 70.0013115,33.947541 C69.9409836,35.8308197 69.9081967,37.7101639 69.9081967,39.5895082 L69.9081967,42.5704918 C70.3396721,42.6740984 70.8091803,42.7422951 71.3180328,42.7816393" id="Fill-10" fill="#1A2541"></path>
                <path d="M123.639344,61.9645902 C123.207869,61.8911475 122.798689,61.8570492 122.414426,61.8570492 L119.960656,61.8570492 C119.579016,61.8570492 119.167213,61.8911475 118.735738,61.9645902 C118.519344,61.1632787 118.228197,60.1940984 117.858361,59.0636066 C117.489836,57.9291803 117.079344,56.7462295 116.63082,55.5081967 C116.184918,54.2740984 115.728525,53.0163934 115.266885,51.7442623 C114.806557,50.4747541 114.37377,49.2629508 113.97377,48.1127869 C112.98623,48.0786885 111.982951,48.0511475 110.965246,48.0354098 C109.950164,48.0196721 108.932459,48.0065574 107.91082,48.0065574 C106.954754,48.0065574 106.019672,48.0196721 105.092459,48.0354098 C104.167869,48.0511475 103.224918,48.0786885 102.268852,48.1127869 C101.281311,50.827541 100.389508,53.4163934 99.5855738,55.8767213 C98.7855738,58.3318033 98.1862295,60.3619672 97.7836066,61.9645902 C97.2577049,61.8911475 96.6872131,61.8570492 96.0734426,61.8570492 C95.4531148,61.8570492 94.882623,61.8911475 94.3606557,61.9645902 C96.8577049,55.8662295 99.2931148,49.8019672 101.67082,43.7744262 C104.041967,37.7468852 106.432787,31.6157377 108.840656,25.3757377 L109.718033,25.3757377 C110.460328,27.3967213 111.260328,29.5842623 112.121967,31.9370492 C112.98623,34.2859016 113.862295,36.6662295 114.758033,39.0714754 C115.652459,41.4727869 116.548197,43.8609836 117.44,46.2321311 C118.337049,48.6006557 119.176393,50.8052459 119.960656,52.8459016 C120.750164,54.8839344 121.458361,56.7029508 122.093115,58.3042623 C122.721311,59.9068852 123.239344,61.1265574 123.639344,61.9645902 M103.148852,45.707541 C103.950164,45.707541 104.782951,45.7245902 105.645902,45.76 C106.510164,45.7967213 107.340328,45.8111475 108.144262,45.8111475 C109.005902,45.8111475 109.874098,45.8006557 110.738361,45.787541 C111.597377,45.7704918 112.461639,45.7442623 113.327213,45.707541 L108.191475,32.4314754 L103.148852,45.707541" id="Fill-11" fill="#1A2541"></path>
                <path d="M266.608525,32.824918 C266.527213,30.612459 266.447213,28.3554098 266.348852,26.0537705 C267.522623,26.1259016 268.689836,26.1822951 269.846557,26.237377 C270.999344,26.2885246 272.163934,26.3160656 273.337705,26.3160656 C274.510164,26.3160656 275.673443,26.2740984 276.830164,26.1822951 C277.988197,26.0970492 279.150164,26.0537705 280.323934,26.0537705 C283.041311,26.0537705 285.361311,26.4563934 287.281311,27.2590164 C289.20918,28.0577049 290.79082,29.2013115 292.02623,30.6806557 C293.261639,32.1586885 294.162623,33.9711475 294.733115,36.1154098 C295.304918,38.2596721 295.586885,40.6754098 295.586885,43.3547541 C295.586885,46.8406557 295.053115,49.7783607 293.99082,52.162623 C292.925902,54.5547541 291.571148,56.4708197 289.916066,57.9396721 C288.271475,59.4032787 286.455082,60.4419672 284.459016,61.0465574 C282.473443,61.6577049 280.567869,61.9645902 278.750164,61.9645902 C277.697049,61.9645902 276.670164,61.9462295 275.652459,61.9134426 C274.634754,61.8754098 273.597377,61.8583607 272.553443,61.8583607 L269.44918,61.8583607 C268.436721,61.8583607 267.401967,61.892459 266.348852,61.9645902 C266.447213,59.8045902 266.527213,57.6065574 266.608525,55.3757377 C266.685902,53.1488525 266.722623,50.8839344 266.722623,48.5822951 L266.722623,39.5921311 C266.722623,37.2931148 266.685902,35.0347541 266.608525,32.824918 M270.793443,59.6655738 C271.44,59.8386885 272.32,59.9659016 273.429508,60.0563934 C274.542951,60.1429508 275.682623,60.1862295 276.856393,60.1862295 C278.55082,60.1862295 280.247869,59.9632787 281.939672,59.5055738 C283.638033,59.0557377 285.15541,58.2006557 286.497049,56.9442623 C287.837377,55.6904918 288.932459,53.975082 289.78623,51.7967213 C290.628197,49.6196721 291.057049,46.8065574 291.057049,43.3547541 C291.057049,40.322623 290.721311,37.8360656 290.057705,35.8819672 C289.396721,33.9265574 288.486557,32.3868852 287.332459,31.255082 C286.177049,30.1219672 284.794754,29.3377049 283.186885,28.8996721 C281.589508,28.4681967 279.829508,28.2518033 277.914754,28.2518033 C276.527213,28.2518033 275.236721,28.3029508 274.031475,28.4052459 C272.827541,28.5088525 271.749508,28.6295082 270.793443,28.7698361 C270.701639,30.4472131 270.636066,32.1940984 270.584918,34.0236066 C270.539016,35.8557377 270.512787,37.7101639 270.512787,39.5921311 L270.512787,48.5822951 C270.512787,52.344918 270.609836,56.0406557 270.793443,59.6655738" id="Fill-12" fill="#1A2541"></path>
                <path d="M302.87082,57.0754098 C303.285246,57.7219672 303.798033,58.3081967 304.396066,58.8301639 C304.998033,59.3534426 305.704918,59.7757377 306.50623,60.107541 C307.307541,60.4419672 308.203279,60.6006557 309.186885,60.6006557 C310.208525,60.6006557 311.118689,60.4039344 311.935738,60.0052459 C312.752787,59.6052459 313.450492,59.0636066 314.019672,58.3842623 C314.591475,57.7009836 315.03082,56.9022951 315.33377,55.9790164 C315.648525,55.0570492 315.800656,54.0747541 315.800656,53.0268852 C315.800656,51.4229508 315.434754,50.1521311 314.709508,49.2091803 C313.988197,48.2701639 313.088525,47.4859016 312.003934,46.8563934 C310.931148,46.2308197 309.762623,45.6577049 308.518033,45.1344262 C307.265574,44.6098361 306.102295,43.9554098 305.022951,43.1737705 C303.944918,42.3881967 303.045246,41.387541 302.316066,40.1678689 C301.593443,38.9495082 301.231475,37.3101639 301.231475,35.2537705 C301.231475,33.7914754 301.463607,32.4563934 301.922623,31.255082 C302.384262,30.0511475 303.055738,29.0190164 303.935738,28.1481967 C304.815738,27.2747541 305.872787,26.5954098 307.108197,26.1062295 C308.343607,25.6196721 309.720656,25.3796721 311.265574,25.3796721 C312.752787,25.3796721 314.030164,25.5777049 315.104262,25.9763934 C316.187541,26.3790164 317.189508,26.9980328 318.108852,27.8347541 C317.837377,28.4262295 317.602623,29.0531148 317.419016,29.7140984 C317.234098,30.375082 317.053115,31.2118033 316.869508,32.2203279 L316.314754,32.2203279 C316.157377,31.7337705 315.947541,31.2039344 315.686557,30.6255738 C315.424262,30.0511475 315.067541,29.52 314.616393,29.0334426 C314.171803,28.5468852 313.638033,28.135082 313.025574,27.8059016 C312.407869,27.4754098 311.668197,27.3101639 310.805246,27.3101639 C309.940984,27.3101639 309.148852,27.4662295 308.422295,27.7822951 C307.699672,28.0944262 307.06623,28.5390164 306.531148,29.1147541 C305.986885,29.6852459 305.569836,30.375082 305.276066,31.175082 C304.982295,31.9790164 304.83541,32.8472131 304.83541,33.7914754 C304.83541,35.4308197 305.201311,36.7147541 305.923934,37.6563934 C306.646557,38.5980328 307.551475,39.3954098 308.632131,40.0380328 C309.711475,40.6832787 310.874754,41.2590164 312.119344,41.7613115 C313.371803,42.267541 314.53377,42.8839344 315.611803,43.6183607 C316.696393,44.3488525 317.597377,45.2918033 318.323934,46.4393443 C319.041311,47.5934426 319.408525,49.1252459 319.408525,51.037377 C319.408525,52.6439344 319.151475,54.1586885 318.643934,55.5829508 C318.136393,57.0177049 317.391475,58.2609836 316.423607,59.3245902 C315.454426,60.3868852 314.267541,61.2052459 312.862951,61.7783607 C311.460984,62.3540984 309.860984,62.6452459 308.077377,62.6452459 C306.166557,62.6452459 304.609836,62.3540984 303.432131,61.7783607 C302.237377,61.2052459 301.243279,60.5508197 300.445902,59.8190164 C300.723934,59.0190164 300.918033,58.2963934 301.017705,57.6498361 C301.127869,57.0059016 301.231475,56.1836066 301.321967,55.1698361 L301.876721,55.1698361 C302.128525,55.7954098 302.459016,56.4288525 302.87082,57.0754098" id="Fill-13" fill="#1A2541"></path>
                <path d="M324.891803,36.1678689 C325.740328,33.8504918 326.928525,31.892459 328.452459,30.2911475 C329.980328,28.6872131 331.809836,27.467541 333.937049,26.6295082 C336.061639,25.7954098 338.385574,25.3783607 340.920656,25.3783607 C343.481967,25.3783607 345.822951,25.7954098 347.947541,26.6295082 C350.074754,27.467541 351.906885,28.6872131 353.432131,30.2911475 C354.956066,31.892459 356.144262,33.8504918 356.992787,36.1678689 C357.84,38.4878689 358.263607,41.1265574 358.263607,44.0852459 C358.263607,47.0504918 357.84,49.6891803 356.992787,52.0065574 C356.144262,54.3265574 354.956066,56.2819672 353.432131,57.8872131 C351.906885,59.4859016 350.074754,60.6806557 347.947541,61.467541 C345.822951,62.2465574 343.481967,62.6452459 340.920656,62.6452459 C338.385574,62.6452459 336.061639,62.2465574 333.937049,61.467541 C331.809836,60.6806557 329.980328,59.4859016 328.452459,57.8872131 C326.928525,56.2819672 325.740328,54.3265574 324.891803,52.0065574 C324.04459,49.6891803 323.619672,47.0504918 323.619672,44.0852459 C323.619672,41.1265574 324.04459,38.4878689 324.891803,36.1678689 M352.759344,36.587541 C352.111475,34.48 351.210492,32.7357377 350.05377,31.3586885 C348.897049,29.9868852 347.540984,28.9665574 345.985574,28.3003279 C344.424918,27.6406557 342.743607,27.3114754 340.920656,27.3114754 C339.130492,27.3114754 337.459672,27.6406557 335.89377,28.3003279 C334.343607,28.9665574 332.982295,29.9868852 331.829508,31.3586885 C330.672787,32.7357377 329.778361,34.48 329.127869,36.587541 C328.478689,38.6937705 328.149508,41.1960656 328.149508,44.0852459 C328.149508,46.9796721 328.478689,49.4806557 329.127869,51.5881967 C329.778361,53.6970492 330.672787,55.437377 331.829508,56.8170492 C332.982295,58.1888525 334.343607,59.2065574 335.89377,59.8754098 C337.459672,60.5337705 339.130492,60.8642623 340.920656,60.8642623 C342.743607,60.8642623 344.424918,60.5337705 345.985574,59.8754098 C347.540984,59.2065574 348.897049,58.1888525 350.05377,56.8170492 C351.210492,55.437377 352.111475,53.6970492 352.759344,51.5881967 C353.409836,49.4806557 353.729836,46.9796721 353.729836,44.0852459 C353.729836,41.1960656 353.409836,38.6937705 352.759344,36.587541" id="Fill-14" fill="#1A2541"></path>
                <path d="M219.662951,43.3534426 L219.662951,30.8209836 C219.662951,27.6209836 219.71541,24.4747541 219.809836,21.387541 C219.901639,18.3606557 220.007869,15.2721311 220.116721,12.1245902 C220.161311,11.9829508 220.183607,11.8242623 220.188852,11.6511475 C220.19541,11.1685246 218.857705,10.8419672 217.287869,10.8419672 C215.708852,10.8419672 214.423607,11.2314754 214.434098,11.7167213 C214.434098,11.8032787 214.460328,11.8793443 214.481311,11.9567213 C214.472131,11.9567213 214.466885,11.9567213 214.460328,11.9540984 C214.579672,15.1593443 214.681967,18.3055738 214.775082,21.387541 C214.872131,24.4747541 214.923279,27.6209836 214.923279,30.8209836 L214.923279,33.3718033 C212.841967,33.4242623 210.827541,33.4714754 208.878689,33.5186885 C206.935082,33.5685246 204.920656,33.5908197 202.840656,33.5908197 C200.75541,33.5908197 198.742295,33.5685246 196.794754,33.5186885 C194.845902,33.4714754 192.834098,33.4242623 190.756721,33.3718033 L190.756721,30.8209836 C190.756721,27.6209836 190.802623,24.4747541 190.898361,21.387541 C190.996721,18.3055738 191.100328,15.1593443 191.215738,11.9540984 L191.214426,11.9540984 C191.231475,11.8583607 191.256393,11.76 191.259016,11.6511475 C191.268197,11.1685246 189.931803,10.8419672 188.358033,10.8419672 C186.781639,10.8419672 185.492459,11.2314754 185.506885,11.7167213 C185.506885,11.8072131 185.52918,11.892459 185.547541,11.9829508 C185.665574,15.175082 185.773115,18.3134426 185.870164,21.387541 C185.96459,24.4747541 186.013115,27.6209836 186.013115,30.8209836 L186.013115,43.3534426 C186.013115,46.5613115 185.96459,49.7180328 185.870164,52.8288525 C185.773115,55.9344262 185.665574,58.9914754 185.547541,62.0052459 C186.43541,61.9095082 187.382295,61.8583607 188.384262,61.8583607 C189.38623,61.8583607 190.32918,61.9095082 191.215738,62.0052459 C191.100328,58.9914754 190.996721,55.9344262 190.898361,52.8288525 C190.802623,49.7180328 190.756721,46.5613115 190.756721,43.3534426 L190.756721,36.797377 C192.834098,36.7488525 194.845902,36.7121311 196.794754,36.6859016 C198.742295,36.6636066 200.75541,36.6504918 202.840656,36.6504918 C204.920656,36.6504918 206.935082,36.6636066 208.878689,36.6859016 C210.827541,36.7121311 212.841967,36.7488525 214.923279,36.797377 L214.923279,43.3534426 C214.923279,46.5613115 214.872131,49.7180328 214.775082,52.8288525 C214.681967,55.9344262 214.579672,58.9914754 214.460328,62.0052459 C215.341639,61.9095082 216.291148,61.8583607 217.294426,61.8583607 C218.295082,61.8583607 219.239344,61.9095082 220.12459,62.0052459 C220.00918,58.9914754 219.901639,55.9344262 219.809836,52.8288525 C219.71541,49.7180328 219.662951,46.5613115 219.662951,43.3534426" id="Fill-15" fill="#1A2541"></path>
                <path d="M158.23082,48.5836066 L158.23082,39.5934426 C158.23082,37.2944262 158.267541,35.037377 158.344918,32.824918 C158.422295,30.6990164 158.500984,28.5219672 158.588852,26.317377 C158.601967,26.24 158.621639,26.1652459 158.621639,26.0747541 C158.632131,25.68 157.563279,25.4098361 156.306885,25.4098361 C155.04918,25.4098361 154.023607,25.7311475 154.036721,26.132459 C154.036721,26.2334426 154.055082,26.322623 154.082623,26.4131148 C154.16918,28.584918 154.24918,30.7265574 154.321311,32.824918 C154.401311,35.037377 154.436721,37.2944262 154.436721,39.5934426 L154.436721,41.4229508 C152.772459,41.4557377 151.160656,41.492459 149.602623,41.5252459 C148.04459,41.5593443 146.43541,41.5790164 144.769836,41.5790164 C143.104262,41.5790164 141.491148,41.5593443 139.937049,41.5252459 C138.379016,41.492459 136.769836,41.4557377 135.102951,41.4229508 L135.102951,39.5934426 C135.102951,37.2944262 135.142295,35.037377 135.218361,32.824918 C135.294426,30.6098361 135.380984,28.3527869 135.472787,26.0563934 L135.462295,26.0563934 C135.436066,25.6695082 134.398689,25.4098361 133.181639,25.4098361 C132.019672,25.4098361 131.063607,25.6918033 130.956066,26.0563934 L130.939016,26.0563934 L130.939016,26.1101639 C130.939016,26.1167213 130.935082,26.1245902 130.935082,26.132459 C130.935082,26.1481967 130.945574,26.1652459 130.945574,26.184918 C131.033443,28.4354098 131.118689,30.6544262 131.194754,32.824918 C131.269508,35.037377 131.308852,37.2944262 131.308852,39.5934426 L131.308852,48.5836066 C131.308852,50.882623 131.269508,53.147541 131.194754,55.3770492 C131.118689,57.6078689 131.032131,59.8032787 130.939016,61.9645902 C131.647213,61.8911475 132.406557,61.8570492 133.203934,61.8570492 C134.007869,61.8570492 134.765902,61.8911475 135.472787,61.9645902 C135.380984,59.8032787 135.294426,57.6078689 135.218361,55.3770492 C135.142295,53.147541 135.102951,50.882623 135.102951,48.5836066 L135.102951,43.8806557 C136.769836,43.8452459 138.379016,43.8163934 139.937049,43.8045902 C141.491148,43.7822951 143.104262,43.7744262 144.769836,43.7744262 C146.43541,43.7744262 148.04459,43.7822951 149.602623,43.8045902 C151.160656,43.8163934 152.772459,43.8452459 154.436721,43.8806557 L154.436721,48.5836066 C154.436721,50.882623 154.401311,53.147541 154.321311,55.3770492 C154.243934,57.6078689 154.16,59.8032787 154.065574,61.9645902 C154.777705,61.8911475 155.531803,61.8570492 156.331803,61.8570492 C157.135738,61.8570492 157.89377,61.8911475 158.600656,61.9645902 C158.507541,59.8032787 158.422295,57.6078689 158.344918,55.3770492 C158.267541,53.147541 158.23082,50.882623 158.23082,48.5836066" id="Fill-16" fill="#1A2541"></path>
                <path d="M392.250492,25.867541 C392.260984,25.5763934 391.52918,25.3862295 390.668852,25.3862295 C389.800656,25.3862295 389.097705,25.6170492 389.102951,25.9095082 C389.102951,25.9868852 389.144918,26.0459016 389.160656,26.1127869 C389.323279,29.1632787 389.416393,32.4091803 389.464918,35.8570492 C389.513443,39.3232787 389.531803,42.8839344 389.531803,46.5442623 L389.531803,53.6563934 C388.114098,52.0511475 386.457705,50.1062295 384.562623,47.8216393 C382.662295,45.544918 380.662295,43.122623 378.545574,40.56 C376.43541,37.9986885 374.305574,35.4032787 372.163934,32.772459 C370.020984,30.1390164 368.010492,27.6708197 366.125902,25.3783607 L365.387541,25.3783607 C365.44918,26.5613115 365.485902,28.3554098 365.508197,30.7593443 C365.518689,33.1659016 365.527869,36.0393443 365.527869,39.3836066 C365.527869,40.535082 365.508197,41.8386885 365.480656,43.3036066 C365.44918,44.7672131 365.412459,46.267541 365.365246,47.7993443 C365.318033,49.3311475 365.249836,50.8681967 365.182951,52.3986885 C365.104262,53.9331148 365.034754,55.3534426 364.973115,56.6570492 C364.910164,57.9659016 364.83541,59.0885246 364.763279,60.0288525 C364.689836,60.9691803 364.616393,61.6144262 364.553443,61.9659016 C365.08459,61.8937705 365.648525,61.8570492 366.267541,61.8570492 C366.85377,61.8570492 367.391475,61.8937705 367.889836,61.9659016 C367.853115,61.6839344 367.821639,61.1554098 367.79541,60.3711475 C367.763934,59.5868852 367.727213,58.6727869 367.702295,57.6262295 C367.669508,56.5836066 367.638033,55.4465574 367.607869,54.2268852 C367.576393,53.0085246 367.554098,51.8072131 367.539672,50.6216393 C367.522623,49.4386885 367.506885,48.3003279 367.492459,47.2236066 C367.47541,46.1442623 367.471475,45.2406557 367.471475,44.5088525 C367.471475,41.6839344 367.485902,39.4518033 367.517377,37.815082 C367.548852,36.1757377 367.576393,34.8695082 367.607869,33.892459 C371.618361,38.7029508 375.630164,43.5383607 379.63541,48.397377 C383.645902,53.2603279 387.422951,58.0078689 390.962623,62.6452459 L391.611803,62.6452459 L391.611803,60.9180328 C391.611803,60.0839344 391.605246,59.1016393 391.59082,57.9659016 C391.576393,56.8340984 391.560656,55.6144262 391.548852,54.3055738 C391.534426,52.9993443 391.517377,51.6996721 391.496393,50.4118033 C391.485902,49.1239344 391.47541,47.8819672 391.47541,46.6977049 L391.47541,43.5645902 C391.47541,42.5547541 391.506885,41.2131148 391.571148,39.5396721 C391.632787,37.867541 391.697049,36.157377 391.779672,34.4157377 C391.853115,32.6754098 391.930492,31.037377 392.010492,29.5055738 C392.083934,27.9698361 392.157377,26.8236066 392.219016,26.052459 C392.21377,26.052459 392.208525,26.052459 392.208525,26.0590164 C392.219016,25.9881967 392.250492,25.9436066 392.250492,25.867541" id="Fill-17" fill="#1A2541"></path>
                <path d="M257.677377,25.867541 C257.685246,25.5763934 256.907541,25.3862295 255.99082,25.3862295 C255.07541,25.3862295 254.327869,25.6170492 254.338361,25.9095082 C254.338361,25.9645902 254.372459,26.0039344 254.386885,26.0590164 C254.380328,26.052459 254.372459,26.052459 254.372459,26.052459 C254.495738,27.0636066 254.571803,28.9127869 254.603279,31.5947541 C254.636066,34.2780328 254.646557,38.0957377 254.646557,43.0413115 C254.646557,44.1232787 254.636066,45.3062295 254.603279,46.5980328 C254.571803,47.8819672 254.464262,49.1737705 254.276721,50.4655738 C254.095738,51.7560656 253.794098,52.9901639 253.377049,54.1757377 C252.962623,55.3586885 252.382951,56.4052459 251.641967,57.3140984 C250.904918,58.2190164 249.952787,58.9508197 248.801311,59.5068852 C247.647213,60.0616393 246.220328,60.3422951 244.520656,60.3422951 C242.793443,60.3422951 241.342951,60.1088525 240.173115,59.6367213 C239.000656,59.1685246 238.031475,58.5245902 237.255082,57.704918 C236.485246,56.8852459 235.89377,55.9265574 235.474098,54.8301639 C235.060984,53.732459 234.761967,52.5822951 234.577049,51.3783607 C234.389508,50.1731148 234.283279,48.9403279 234.251803,47.6681967 C234.221639,46.397377 234.20459,45.1672131 234.20459,43.9816393 C234.20459,42.0327869 234.221639,40.1495082 234.251803,38.3357377 C234.283279,36.5245902 234.325246,34.8367213 234.389508,33.2681967 C234.449836,31.7009836 234.510164,30.295082 234.577049,29.0596721 C234.637377,27.8268852 234.699016,26.8236066 234.761967,26.052459 C234.754098,26.052459 234.748852,26.0590164 234.740984,26.0590164 C234.758033,25.9777049 234.772459,25.8963934 234.775082,25.8019672 C234.782951,25.412459 233.757377,25.1462295 232.546885,25.1462295 C231.331148,25.1462295 230.347541,25.464918 230.358033,25.8570492 C230.358033,25.9278689 230.375082,25.9934426 230.39082,26.0590164 C230.381639,26.0590164 230.375082,26.052459 230.363279,26.052459 C230.428852,27.6222951 230.486557,29.5383607 230.549508,31.8032787 C230.611148,34.0721311 230.646557,36.6609836 230.646557,39.5934426 C230.646557,40.9154098 230.608525,42.2137705 230.528525,43.4872131 C230.445902,44.7580328 230.413115,46.212459 230.413115,47.8518033 C230.413115,52.9757377 231.462295,56.717377 233.558033,59.0885246 C235.652459,61.4596721 239.015082,62.6452459 243.640656,62.6452459 C245.737705,62.6452459 247.598689,62.3095082 249.214426,61.6511475 C250.831475,60.9888525 252.199344,60.0118033 253.307541,58.7252459 C254.418361,57.4347541 255.277377,55.8662295 255.87541,54.0170492 C256.476066,52.1704918 256.788197,50.0813115 256.82623,47.7455738 C256.851148,45.8295082 256.899672,43.8504918 256.967869,41.815082 C257.025574,39.7744262 257.085902,37.7888525 257.150164,35.8570492 C257.210492,33.9213115 257.286557,32.1114754 257.378361,30.4222951 C257.471475,28.7278689 257.563279,27.2734426 257.659016,26.052459 C257.645902,26.0590164 257.639344,26.0590164 257.624918,26.0642623 C257.639344,25.9960656 257.677377,25.9436066 257.677377,25.867541" id="Fill-18" fill="#1A2541"></path>
                <path d="M370.44459,6.79344262 C370.407869,5.76655738 370.356721,4.73704918 370.287213,3.70229508 C370.553443,3.73508197 370.847213,3.76393443 371.167213,3.78491803 C371.487213,3.81114754 371.843934,3.82295082 372.247869,3.82295082 C372.921967,3.82295082 373.639344,3.80065574 374.386885,3.76393443 C375.137049,3.71934426 375.854426,3.70229508 376.541639,3.70229508 C377.259016,3.70229508 377.906885,3.77180328 378.493115,3.91606557 C379.079344,4.06295082 379.593443,4.27803279 380.022295,4.57311475 C380.445902,4.86557377 380.782951,5.24721311 381.012459,5.71803279 C381.238033,6.18885246 381.358689,6.75016393 381.358689,7.40196721 C381.358689,8.05508197 381.217049,8.61639344 380.95082,9.08459016 C380.678033,9.55278689 380.347541,9.94360656 379.959344,10.2518033 C379.568525,10.5613115 379.143607,10.8052459 378.688525,10.9836066 C378.232131,11.1554098 377.822951,11.277377 377.455738,11.3377049 L377.455738,11.3888525 C377.819016,11.3980328 378.242623,11.4885246 378.740984,11.6380328 C379.232787,11.7888525 379.698361,12.0236066 380.142951,12.3422951 C380.588852,12.6583607 380.966557,13.0701639 381.278689,13.5711475 C381.582951,14.0721311 381.740328,14.6793443 381.740328,15.3967213 C381.740328,16.2570492 381.582951,16.9901639 381.278689,17.5908197 C380.966557,18.1967213 380.552131,18.6911475 380.039344,19.0714754 C379.518689,19.4531148 378.932459,19.7206557 378.263607,19.8727869 C377.594754,20.024918 376.900984,20.1009836 376.188852,20.1009836 C375.550164,20.1009836 374.958689,20.0904918 374.414426,20.0747541 C373.870164,20.0590164 373.294426,20.0537705 372.691148,20.0537705 L371.367869,20.0537705 C370.916721,20.0537705 370.553443,20.0655738 370.287213,20.1009836 C370.356721,19.1134426 370.407869,18.104918 370.44459,17.0780328 C370.482623,16.0511475 370.493115,14.8786885 370.493115,13.5593443 L370.493115,10.3108197 C370.493115,8.99016393 370.482623,7.81901639 370.44459,6.79344262 M377.693115,6.77245902 C377.602623,6.42622951 377.455738,6.13245902 377.259016,5.88721311 C377.04918,5.63803279 376.781639,5.44131148 376.466885,5.2904918 C376.146885,5.13704918 375.749508,5.06229508 375.272131,5.06229508 C374.923279,5.06229508 374.680656,5.06622951 374.544262,5.07672131 C374.40918,5.08196721 374.263607,5.1042623 374.100984,5.13311475 C374.073443,5.72327869 374.049836,6.32 374.032787,6.92459016 C374.011803,7.52655738 374.006557,8.03672131 374.006557,8.45377049 C374.006557,8.88 374.011803,9.29311475 374.022295,9.68131148 C374.027541,10.0721311 374.032787,10.4747541 374.032787,10.8865574 L375.099016,10.8865574 C375.441311,10.8865574 375.770492,10.8209836 376.095738,10.692459 C376.420984,10.5665574 376.713443,10.3816393 376.965246,10.132459 C377.217049,9.88852459 377.426885,9.57377049 377.589508,9.18819672 C377.744262,8.81311475 377.828197,8.36327869 377.828197,7.85311475 C377.828197,7.47147541 377.780984,7.1095082 377.693115,6.77245902 M377.241967,13.0701639 C376.738361,12.5219672 376.011803,12.2465574 375.059672,12.2465574 C374.832787,12.2465574 374.641311,12.2504918 374.483934,12.2557377 C374.325246,12.2662295 374.174426,12.2714754 374.032787,12.2714754 C374.032787,12.6032787 374.027541,12.9521311 374.022295,13.307541 C374.011803,13.6629508 374.006557,14.0931148 374.006557,14.5862295 C374.006557,14.9652459 374.011803,15.357377 374.022295,15.7534426 C374.027541,16.1508197 374.032787,16.5416393 374.032787,16.9245902 C374.032787,17.3062295 374.038033,17.6537705 374.04459,17.9737705 C374.051148,18.2937705 374.051148,18.5547541 374.051148,18.7619672 C374.278033,18.7777049 374.483934,18.7895082 374.67541,18.7986885 C374.865574,18.8052459 375.09377,18.8091803 375.367869,18.8091803 C375.718033,18.8091803 376.048525,18.7383607 376.368525,18.5940984 C376.687213,18.452459 376.965246,18.24 377.2,17.9632787 C377.44,17.682623 377.63541,17.3455738 377.775738,16.9468852 C377.922623,16.5521311 377.99082,16.0891803 377.99082,15.5619672 C377.99082,14.4511475 377.739016,13.6196721 377.241967,13.0701639" id="Fill-19" fill="#1A2541"></path>
                <path d="M392.313443,9.29967213 C392.632131,8.71737705 392.942951,8.10754098 393.240656,7.47409836 C393.544918,6.83803279 393.842623,6.19540984 394.125902,5.54885246 C394.414426,4.90754098 394.685902,4.29245902 394.963934,3.70098361 C395.137049,3.73508197 395.314098,3.7652459 395.501639,3.78360656 C395.681311,3.81114754 395.868852,3.82163934 396.059016,3.82163934 C396.250492,3.82163934 396.43541,3.81114754 396.619016,3.78360656 C396.805246,3.7652459 397.000656,3.73508197 397.210492,3.70098361 C396.939016,4.1495082 396.598033,4.73442623 396.194098,5.45704918 C395.784918,6.18098361 395.35082,6.96393443 394.88918,7.80721311 C394.424918,8.65311475 393.963279,9.51213115 393.497705,10.3960656 C393.020328,11.2813115 392.59541,12.0957377 392.220328,12.8445902 C392.220328,13.224918 392.208525,13.6104918 392.192787,13.9986885 C392.178361,14.3881967 392.171803,14.7842623 392.171803,15.1803279 C392.171803,15.9947541 392.183607,16.7960656 392.203279,17.5921311 C392.229508,18.3895082 392.292459,19.224918 392.407869,20.0957377 C392.073443,20.0655738 391.732459,20.0511475 391.396721,20.0511475 L389.365246,20.0511475 C389.019016,20.0511475 388.685902,20.0655738 388.350164,20.0957377 C388.380328,19.3665574 388.438033,18.6177049 388.518033,17.8531148 C388.594098,17.0911475 388.637377,16.3304918 388.637377,15.5619672 C388.637377,15.197377 388.632131,14.8262295 388.626885,14.4537705 C388.616393,14.0786885 388.599344,13.7088525 388.588852,13.3468852 C388.192787,12.5481967 387.731148,11.6629508 387.219672,10.6832787 C386.699016,9.70491803 386.203279,8.75540984 385.71541,7.82819672 C385.227541,6.90885246 384.782951,6.07344262 384.379016,5.32459016 C383.972459,4.5757377 383.673443,4.03672131 383.48459,3.70098361 C383.846557,3.73508197 384.201967,3.7652459 384.558689,3.78360656 C384.908852,3.81114754 385.264262,3.82163934 385.631475,3.82163934 C385.998689,3.82163934 386.348852,3.81114754 386.688525,3.78360656 C387.034754,3.7652459 387.391475,3.73508197 387.758689,3.70098361 C388.024918,4.29245902 388.327869,4.94295082 388.674098,5.66032787 C389.01377,6.37377049 389.353443,7.07672131 389.683934,7.75737705 C390.019672,8.44590164 390.334426,9.06491803 390.620328,9.62098361 C390.904918,10.1809836 391.135738,10.5927869 391.314098,10.8629508 L391.356066,10.8629508 C391.673443,10.3986885 391.993443,9.88065574 392.313443,9.29967213" id="Fill-20" fill="#1A2541"></path>
            </g>
        </g>
    </g>
</svg>